#!OML:ASF E:\Steps\Project 1\Capture day 1\Session 2\Subject.ASF
:FULLY-SPECIFIED
:DEGREES
141
root 1.71589 15.909 20.081 -158.456 5.84267 199.404
lowerback -19.6935 -5.2012 -12.0134
upperback 2.00045 -4.24968 2.16303
thorax 14.6045 -3.01163 7.98226
lowerneck -0.740485 -11.2603 -0.0803125
upperneck 23.2605 -15.5121 5.88813
head 7.79784 -6.41034 0.914626
rclavicle 8.74653e-015 2.54444e-014
rhumerus -53.0599 -15.7328 -75.8812
rradius 37.3867
rwrist -7.61699
rhand -6.98553 -49.8169
rfingers 7.12502
rthumb 18.8847 -78.9202
lclavicle 8.74653e-015 2.54444e-014
lhumerus -34.0269 -2.0886 63.8643
lradius 36.7657
lwrist 3.5583
lhand -22.3304 -11.3639
lfingers 7.12502
lthumb 4.08976 18.5766
rfemur -42.1513 -8.40235 0.467214
rtibia 23.9414
rfoot -3.48391 -7.36204
rtoes -40.1876
lfemur -19.0554 -6.08865 10.2149
ltibia 31.2939
lfoot -25.4499 12.0909
ltoes -23.064
142
root 1.8113 15.8775 20.1278 -157.055 4.57789 198.482
lowerback -19.5766 -5.70119 -12.7482
upperback 1.53416 -4.72247 2.03263
thorax 14.1549 -3.21279 8.09847
lowerneck -1.23615 -11.3083 0.47614
upperneck 23.12 -15.6531 5.81873
head 7.79321 -6.44246 0.770963
rclavicle 3.81667e-014 1.59028e-014
rhumerus -52.9317 -16.1195 -75.9501
rradius 37.2827
rwrist -7.54793
rhand -8.06618 -50.5978
rfingers 7.12502
rthumb 17.8452 -79.7991
lclavicle 3.81667e-014 1.59028e-014
lhumerus -33.5212 -2.54195 63.7882
lradius 37.1235
lwrist 3.84456
lhand -21.9969 -11.3291
lfingers 7.12502
lthumb 4.41179 18.6049
rfemur -43.6968 -9.9982 0.0244868
rtibia 24.8056
rfoot -3.30357 -6.84579
rtoes -39.8422
lfemur -22.0886 -5.94116 10.3456
ltibia 32.5541
lfoot -25.3559 11.9758
ltoes -25.6698
143
root 1.88278 15.8608 20.0647 -157.524 4.87195 198.496
lowerback -19.3076 -5.3726 -12.4637
upperback 1.78871 -4.36633 1.83762
thorax 14.1642 -3.0378 7.835
lowerneck -1.56748 -11.301 0.726832
upperneck 23.124 -15.6844 5.76845
head 7.82979 -6.43626 0.694825
rclavicle 3.18055e-014 -2.8625e-014
rhumerus -52.9634 -16.2033 -75.9118
rradius 37.1184
rwrist -7.37048
rhand -8.14107 -51.2104
rfingers 7.12502
rthumb 17.7731 -80.4182
lclavicle 3.18055e-014 -2.8625e-014
lhumerus -33.376 -2.87513 63.7409
lradius 37.5125
lwrist 4.28697
lhand -21.8592 -11.0507
lfingers 7.12502
lthumb 4.54469 18.8805
rfemur -43.3956 -9.89539 0.466922
rtibia 25.1514
rfoot -2.98846 -5.2374
rtoes -40.4958
lfemur -20.9204 -6.27856 10.2876
ltibia 32.1911
lfoot -25.8179 12.3288
ltoes -25.7124
144
root 1.97862 15.839 20.0382 -157.359 4.79227 198.287
lowerback -19.6274 -5.53062 -12.7799
upperback 1.82497 -4.46105 1.89924
thorax 14.4581 -3.12594 8.04172
lowerneck -1.02675 -11.1691 0.311603
upperneck 22.7837 -15.4481 5.93113
head 7.65811 -6.38019 0.864846
rclavicle 1.51076e-014 -4.13472e-014
rhumerus -52.8971 -15.6738 -75.8965
rradius 36.9237
rwrist -7.26096
rhand -7.82861 -50.8263
rfingers 7.12502
rthumb 18.0737 -80.0065
lclavicle 1.51076e-014 -4.13472e-014
lhumerus -33.4601 -2.59246 63.7486
lradius 37.7485
lwrist 4.40909
lhand -21.8827 -11.2195
lfingers 7.12502
lthumb 4.522 18.7122
rfemur -43.821 -9.98112 0.684203
rtibia 25.7127
rfoot -2.99996 -4.35987
rtoes -40.5984
lfemur -21.01 -6.29716 10.4583
ltibia 32.2011
lfoot -25.9487 12.624
ltoes -27.548
145
root 2.08146 15.8075 20.0334 -156.703 4.25824 197.89
lowerback -19.6725 -5.78022 -13.1063
upperback 1.59136 -4.70724 1.9303
thorax 14.3033 -3.23679 8.18226
lowerneck -0.893673 -11.1509 0.13259
upperneck 22.608 -15.4229 6.05627
head 7.59955 -6.38879 0.943123
rclavicle 5.00937e-014 4.77083e-014
rhumerus -52.9797 -15.32 -75.9425
rradius 36.8195
rwrist -7.03419
rhand -7.51697 -50.2498
rfingers 7.12502
rthumb 18.3736 -79.4021
lclavicle 5.00937e-014 4.77083e-014
lhumerus -33.5293 -2.50409 63.7709
lradius 38.1187
lwrist 4.34782
lhand -21.9371 -11.4349
lfingers 7.12502
lthumb 4.46948 18.4979
rfemur -44.7014 -10.6483 0.813421
rtibia 26.5338
rfoot -3.08897 -3.7743
rtoes -39.4155
lfemur -22.2073 -6.30187 10.775
ltibia 32.6871
lfoot -25.9277 12.7583
ltoes -29.4214
146
root 2.17857 15.7821 20.0147 -156.414 3.92746 197.699
lowerback -19.3565 -5.77522 -13.0684
upperback 1.36474 -4.74372 1.85723
thorax 13.8438 -3.20351 8.08242
lowerneck -0.57576 -11.1578 0.0932528
upperneck 22.4452 -15.4193 6.20086
head 7.50507 -6.39053 1.01767
rclavicle -2.70347e-014 1.90833e-014
rhumerus -53.487 -15.1084 -76.0097
rradius 36.9749
rwrist -6.6674
rhand -6.78018 -49.9798
rfingers 7.12502
rthumb 19.0822 -79.0637
lclavicle -2.70347e-014 1.90833e-014
lhumerus -33.7191 -2.76522 63.7604
lradius 38.5414
lwrist 4.29632
lhand -22.1019 -11.44
lfingers 7.12502
lthumb 4.31037 18.4962
rfemur -45.2588 -11.161 1.34133
rtibia 27.3521
rfoot -2.7804 -3.09689
rtoes -38.5213
lfemur -22.65 -6.41675 11.1339
ltibia 32.9268
lfoot -26.194 12.6172
ltoes -29.3942
147
root 2.267 15.7522 19.9777 -156.44 4.03717 197.6
lowerback -19.5098 -5.54962 -12.7536
upperback 1.74927 -4.46955 1.67068
thorax 14.2751 -3.09404 7.76092
lowerneck -1.24082 -11.1041 0.279824
upperneck 22.3506 -15.4293 6.19215
head 7.57463 -6.38638 0.945272
rclavicle -5.1684e-014 5.40694e-014
rhumerus -52.9929 -15.2894 -76.2173
rradius 36.9557
rwrist -6.16556
rhand -6.33831 -49.6233
rfingers 7.12502
rthumb 19.5071 -78.6648
lclavicle -5.1684e-014 5.40694e-014
lhumerus -32.9756 -2.87127 63.7193
lradius 38.6923
lwrist 4.36368
lhand -22.2067 -11.4458
lfingers 7.12502
lthumb 4.20922 18.4924
rfemur -45.7034 -11.5315 2.06106
rtibia 28.1866
rfoot -2.29416 -2.32011
rtoes -38.219
lfemur -22.2179 -6.67469 11.3114
ltibia 32.6592
lfoot -26.4481 12.6555
ltoes -28.5654
148
root 2.36453 15.7254 19.9668 -156.254 3.89248 197.236
lowerback -19.5564 -5.47847 -12.8643
upperback 2.04111 -4.31123 1.5025
thorax 14.6109 -3.05715 7.67087
lowerneck -1.88146 -11.1302 0.587259
upperneck 22.2597 -15.5428 6.10113
head 7.62927 -6.42966 0.822738
rclavicle 1.82882e-014 1.90833e-014
rhumerus -52.4006 -15.4583 -76.4485
rradius 36.7601
rwrist -5.97834
rhand -6.36737 -49.237
rfingers 7.12502
rthumb 19.4792 -78.2813
lclavicle 1.82882e-014 1.90833e-014
lhumerus -32.2323 -3.14917 63.6899
lradius 38.8653
lwrist 4.52752
lhand -21.8504 -11.3942
lfingers 7.12502
lthumb 4.55322 18.5369
rfemur -46.4555 -12.2296 2.69832
rtibia 29.2987
rfoot -3.13557 -2.07161
rtoes -37.7413
lfemur -22.5148 -6.73951 11.4002
ltibia 32.8444
lfoot -26.4702 12.5497
ltoes -28.353
149
root 2.45394 15.6918 19.9167 -156.455 4.27063 197.118
lowerback -19.2731 -5.19446 -12.7957
upperback 1.97769 -3.98194 1.42667
thorax 14.2704 -2.87687 7.67188
lowerneck -1.28349 -11.1357 0.547857
upperneck 21.989 -15.4639 6.02755
head 7.42816 -6.42941 0.85474
rclavicle 1.66979e-014 0
rhumerus -52.8918 -14.9978 -76.3126
rradius 36.7197
rwrist -6.19464
rhand -6.54371 -49.1318
rfingers 7.12502
rthumb 19.3096 -78.1932
lclavicle 1.66979e-014 0
lhumerus -32.5475 -3.4828 63.9069
lradius 39.2018
lwrist 4.60587
lhand -22.3299 -11.5858
lfingers 7.12502
lthumb 4.09019 18.3547
rfemur -46.8357 -12.4588 3.44058
rtibia 30.4605
rfoot -5.44267 -2.31342
rtoes -37.4375
lfemur -21.7036 -6.97745 11.3619
ltibia 32.578
lfoot -26.7703 12.7645
ltoes -28.2846
